<svg width="258" height="258" viewBox="0 0 258 258" fill="none" xmlns="http://www.w3.org/2000/svg">
<path d="M176.381 160V63.1994C170.767 67.5659 158.707 69.2293 146.023 69.2293L146.137 42C166.306 42 182.618 33.6738 182.618 16H211.728V160H176.381Z" fill="black"/>
<path d="M146.348 42V138.478C151.962 134.112 164.022 132.448 176.705 132.448L176.678 160C156.509 160 140.11 168.004 140.11 185.677H111V42H146.348Z" fill="black"/>
<path d="M111.381 187V90.1994C105.767 94.5659 93.7068 96.2293 81.0233 96.2293L81.1372 69C101.306 69 117.618 60.6738 117.618 43H146.728V187H111.381Z" fill="black"/>
<path d="M81.3478 69V165.478C86.9618 161.112 99.0215 159.448 111.705 159.448L111.678 187C91.5087 187 75.11 195.004 75.11 212.677V241.5H46.0002V69H81.3478Z" fill="black"/>
</svg>
